<?xml version="1.0" encoding="utf-8"?>
<!-- Generator: Adobe Illustrator 16.1.0, SVG Export Plug-In . SVG Version: 6.00 Build 0)  -->
<!DOCTYPE svg PUBLIC "-//W3C//DTD SVG 1.1//EN" "http://www.w3.org/Graphics/SVG/1.1/DTD/svg11.dtd">
<svg version="1.1" id="Livello_1" xmlns="http://www.w3.org/2000/svg" xmlns:xlink="http://www.w3.org/1999/xlink" x="0px" y="0px"
	 width="300px" height="95px" viewBox="0 0 300 95" enable-background="new 0 0 300 95" xml:space="preserve">
<g>
	<g>
		<g>
			<path fill="#333333" d="M113.355,44.089l-3.419,26.746h-4.848l3.463-27.559c0.316-2.485,0.62-4.131,0.909-4.939
				c0.634-1.647,1.672-2.514,3.115-2.601c1.328-0.029,2.438,0.593,3.333,1.864c0.605,0.869,1.197,2.239,1.775,4.119l6.361,20.806
				l6.794-21.725c0.607-1.962,1.01-3.117,1.213-3.462c0.663-1.069,1.687-1.602,3.072-1.602c1.27,0,2.235,0.533,2.899,1.602
				c0.52,0.837,0.894,2.091,1.125,3.765c0.173,1.413,0.331,2.841,0.476,4.284l3.202,25.448h-4.76l-3.592-26.876l-7.229,23.716
				c-0.403,1.356-0.836,2.294-1.298,2.812c-0.519,0.607-1.241,0.925-2.163,0.953c-0.925,0.027-1.587-0.361-1.991-1.169
				c-0.087-0.144-0.375-0.967-0.866-2.468L113.355,44.089z"/>
			<path fill="#333333" d="M164.378,71.397c-4.935,0-9.19-1.716-12.767-5.15c-3.578-3.432-5.396-7.574-5.454-12.421
				c-0.057-4.991,1.71-9.254,5.303-12.788c3.593-3.534,7.898-5.302,12.918-5.302c4.903,0,9.167,1.789,12.788,5.367
				c3.621,3.577,5.433,7.775,5.433,12.593c0,4.877-1.796,9.045-5.39,12.509C173.616,69.666,169.341,71.397,164.378,71.397z
				 M151.352,53.608c0,3.58,1.255,6.66,3.765,9.241c2.51,2.583,5.54,3.889,9.087,3.917c3.55,0.058,6.602-1.183,9.155-3.723
				c2.554-2.537,3.871-5.598,3.96-9.174c0.056-3.693-1.19-6.86-3.744-9.5c-2.554-2.639-5.72-3.96-9.5-3.96
				c-3.52,0-6.52,1.306-9.002,3.917C152.59,46.938,151.352,50.032,151.352,53.608z"/>
			<path fill="#333333" d="M191.08,36.211v14.414h14.802V36.343h4.977v34.448h-5.063V55.297h-14.758v15.494h-4.977v-34.58H191.08z"
				/>
			<path fill="#333333" d="M232.93,71.397c-4.933,0-9.19-1.716-12.769-5.15c-3.577-3.432-5.395-7.574-5.452-12.421
				c-0.058-4.991,1.711-9.254,5.302-12.788s7.896-5.302,12.919-5.302c4.902,0,9.166,1.789,12.787,5.367
				c3.621,3.577,5.431,7.775,5.431,12.593c0,4.877-1.794,9.045-5.387,12.509C242.167,69.666,237.892,71.397,232.93,71.397z
				 M219.903,53.608c0,3.58,1.254,6.66,3.766,9.241c2.509,2.583,5.538,3.889,9.086,3.917c3.55,0.058,6.599-1.183,9.154-3.723
				c2.554-2.537,3.873-5.598,3.959-9.174c0.059-3.693-1.188-6.86-3.742-9.5c-2.554-2.639-5.721-3.96-9.5-3.96
				c-3.519,0-6.521,1.306-9.002,3.917C221.142,46.938,219.903,50.032,219.903,53.608z"/>
			<path fill="#333333" d="M254.697,58.586V36.299h5.106v22.547c0,2.741,0.734,4.747,2.209,6.016
				c0.72,0.607,1.556,1.011,2.508,1.213c0.577,0.116,1.558,0.173,2.942,0.173h6.317v4.588h-8.091c-2.482,0-4.661-0.679-6.536-2.035
				c-1.673-1.211-2.855-2.697-3.548-4.458C254.999,62.843,254.697,60.924,254.697,58.586z"/>
			<path fill="#333333" d="M292.911,66.074h5.367v4.717h-3.812c-5.338,0-9.692-1.645-13.067-4.934
				c-3.29-3.201-4.948-7.271-4.979-12.204c-0.06-4.761,1.646-8.844,5.107-12.248c3.46-3.404,7.571-5.107,12.335-5.107h4.282v4.716
				h-2.336c-4.733,0-8.31,1.213-10.731,3.636c-1.673,1.704-2.756,3.536-3.248,5.496l-0.173,0.649h16.66v4.675h-16.876
				c0.347,2.915,1.559,5.366,3.637,7.356c1.125,1.04,2.481,1.862,4.067,2.468C290.53,65.814,291.784,66.074,292.911,66.074z"/>
		</g>
		<g>
			<g>
				<path fill="#999999" d="M106.041,76.906v13.449h-1.601V76.906H106.041z"/>
				<path fill="#999999" d="M116.194,90.562c-0.415,0-0.745-0.115-0.989-0.349c-0.245-0.231-0.368-0.611-0.368-1.139
					c-0.44,0.527-0.952,0.907-1.535,1.139c-0.583,0.233-1.214,0.349-1.893,0.349c-0.439,0-0.854-0.046-1.243-0.142
					c-0.39-0.093-0.731-0.25-1.027-0.47c-0.294-0.22-0.528-0.502-0.697-0.848s-0.254-0.763-0.254-1.253
					c0-0.553,0.095-1.005,0.283-1.356c0.188-0.351,0.436-0.637,0.744-0.856c0.308-0.22,0.659-0.387,1.054-0.499
					c0.396-0.113,0.801-0.208,1.216-0.283c0.439-0.087,0.857-0.152,1.252-0.198c0.396-0.044,0.744-0.106,1.046-0.188
					c0.301-0.081,0.539-0.2,0.715-0.358c0.175-0.156,0.264-0.385,0.264-0.688c0-0.35-0.066-0.634-0.198-0.848
					c-0.131-0.213-0.301-0.376-0.508-0.49c-0.208-0.113-0.441-0.188-0.697-0.226c-0.258-0.036-0.512-0.057-0.763-0.057
					c-0.678,0-1.243,0.13-1.695,0.387c-0.453,0.258-0.697,0.744-0.735,1.459h-1.601c0.025-0.602,0.15-1.11,0.377-1.524
					c0.226-0.414,0.527-0.75,0.904-1.009c0.377-0.258,0.81-0.442,1.299-0.555c0.49-0.113,1.005-0.169,1.545-0.169
					c0.439,0,0.875,0.03,1.309,0.093c0.434,0.063,0.825,0.191,1.177,0.386c0.352,0.195,0.634,0.469,0.849,0.82
					c0.213,0.352,0.32,0.811,0.32,1.375v5.011c0,0.376,0.021,0.652,0.066,0.828c0.042,0.176,0.19,0.264,0.442,0.264
					c0.137,0,0.301-0.03,0.49-0.094v1.243C117.066,90.479,116.683,90.562,116.194,90.562z M113.952,85.654
					c-0.326,0.07-0.668,0.127-1.027,0.17c-0.358,0.045-0.719,0.095-1.082,0.152c-0.365,0.055-0.69,0.145-0.98,0.271
					c-0.289,0.125-0.524,0.306-0.707,0.536c-0.182,0.233-0.273,0.551-0.273,0.952c0,0.265,0.054,0.487,0.159,0.669
					c0.108,0.183,0.246,0.329,0.415,0.443c0.169,0.112,0.371,0.193,0.603,0.244c0.232,0.051,0.468,0.075,0.706,0.075
					c0.527,0,0.98-0.072,1.356-0.216c0.377-0.146,0.685-0.326,0.923-0.547c0.239-0.221,0.414-0.458,0.527-0.716
					c0.113-0.257,0.17-0.498,0.17-0.724v-1.641C114.542,85.477,114.279,85.587,113.952,85.654z"/>
				<path fill="#999999" d="M120.676,76.906v5.029h0.038c0.264-0.54,0.679-0.933,1.244-1.177c0.564-0.246,1.187-0.367,1.864-0.367
					c0.753,0,1.41,0.139,1.969,0.413c0.559,0.276,1.023,0.65,1.394,1.121c0.371,0.472,0.65,1.015,0.838,1.629
					c0.189,0.615,0.283,1.269,0.283,1.96c0,0.689-0.091,1.343-0.272,1.959c-0.183,0.614-0.459,1.152-0.83,1.609
					c-0.37,0.458-0.835,0.82-1.394,1.084c-0.558,0.263-1.208,0.395-1.949,0.395c-0.239,0-0.506-0.025-0.8-0.076
					c-0.295-0.05-0.588-0.13-0.876-0.243c-0.29-0.112-0.562-0.268-0.819-0.462c-0.258-0.194-0.475-0.436-0.65-0.726h-0.038v1.301
					h-1.601V76.906H120.676z M126.431,84.073c-0.119-0.434-0.301-0.819-0.546-1.158c-0.246-0.34-0.559-0.609-0.942-0.811
					c-0.382-0.201-0.832-0.302-1.346-0.302c-0.541,0-0.999,0.107-1.375,0.321c-0.377,0.214-0.684,0.491-0.923,0.837
					c-0.238,0.346-0.411,0.74-0.517,1.178c-0.108,0.44-0.161,0.886-0.161,1.338c0,0.477,0.056,0.938,0.169,1.385
					c0.114,0.444,0.292,0.839,0.537,1.177c0.245,0.34,0.562,0.612,0.951,0.819c0.39,0.208,0.86,0.311,1.414,0.311
					c0.552,0,1.013-0.105,1.384-0.319c0.37-0.214,0.668-0.497,0.895-0.848c0.226-0.352,0.388-0.755,0.489-1.208
					c0.101-0.45,0.151-0.914,0.151-1.392C126.61,84.95,126.551,84.507,126.431,84.073z"/>
				<path fill="#999999" d="M130.151,83.489c0.201-0.623,0.502-1.161,0.903-1.619c0.403-0.458,0.899-0.821,1.489-1.084
					c0.591-0.263,1.269-0.395,2.035-0.395c0.779,0,1.459,0.132,2.044,0.395s1.077,0.626,1.479,1.084
					c0.4,0.458,0.703,0.996,0.904,1.619c0.2,0.621,0.301,1.292,0.301,2.005c0,0.717-0.101,1.384-0.301,1.997
					c-0.202,0.615-0.504,1.153-0.904,1.611c-0.402,0.458-0.895,0.816-1.479,1.073c-0.584,0.258-1.265,0.386-2.044,0.386
					c-0.766,0-1.444-0.128-2.035-0.386c-0.59-0.257-1.086-0.615-1.489-1.073c-0.401-0.458-0.702-0.996-0.903-1.611
					c-0.201-0.613-0.301-1.28-0.301-1.997C129.85,84.781,129.95,84.11,130.151,83.489z M131.781,87.068
					c0.157,0.458,0.373,0.842,0.649,1.148c0.276,0.309,0.6,0.543,0.97,0.706c0.37,0.164,0.763,0.245,1.177,0.245
					c0.415,0,0.807-0.081,1.177-0.245c0.37-0.163,0.693-0.397,0.97-0.706c0.276-0.307,0.493-0.69,0.65-1.148
					c0.157-0.459,0.236-0.982,0.236-1.574c0-0.589-0.079-1.113-0.236-1.572c-0.157-0.459-0.374-0.844-0.65-1.157
					c-0.276-0.314-0.6-0.553-0.97-0.716c-0.371-0.163-0.763-0.246-1.177-0.246c-0.414,0-0.808,0.083-1.177,0.246
					c-0.37,0.163-0.694,0.401-0.97,0.716c-0.276,0.313-0.493,0.698-0.649,1.157s-0.235,0.983-0.235,1.572
					C131.545,86.086,131.624,86.609,131.781,87.068z"/>
				<path fill="#999999" d="M142.828,80.615v2.055h0.038c0.389-0.791,0.866-1.376,1.431-1.751c0.565-0.378,1.282-0.553,2.148-0.527
					v1.693c-0.641,0-1.188,0.089-1.639,0.265c-0.452,0.176-0.816,0.434-1.093,0.773c-0.276,0.338-0.477,0.75-0.602,1.232
					c-0.125,0.483-0.188,1.039-0.188,1.667v4.333h-1.602v-9.74H142.828z"/>
				<path fill="#999999" d="M155.314,90.562c-0.412,0-0.744-0.115-0.988-0.349c-0.244-0.231-0.367-0.611-0.367-1.139
					c-0.44,0.527-0.951,0.907-1.535,1.139c-0.584,0.233-1.215,0.349-1.893,0.349c-0.44,0-0.854-0.046-1.243-0.142
					c-0.39-0.093-0.732-0.25-1.027-0.47c-0.295-0.22-0.527-0.502-0.697-0.848c-0.169-0.346-0.254-0.763-0.254-1.253
					c0-0.553,0.095-1.005,0.282-1.356c0.189-0.351,0.437-0.637,0.745-0.856c0.308-0.22,0.659-0.387,1.055-0.499
					c0.396-0.113,0.8-0.208,1.216-0.283c0.439-0.087,0.856-0.152,1.251-0.198c0.397-0.044,0.744-0.106,1.047-0.188
					c0.301-0.081,0.538-0.2,0.715-0.358c0.177-0.156,0.264-0.385,0.264-0.688c0-0.35-0.065-0.634-0.198-0.848
					c-0.131-0.213-0.301-0.376-0.51-0.49c-0.206-0.113-0.439-0.188-0.695-0.226c-0.258-0.036-0.513-0.057-0.763-0.057
					c-0.679,0-1.244,0.13-1.695,0.387c-0.452,0.258-0.697,0.744-0.734,1.459h-1.602c0.025-0.602,0.151-1.11,0.376-1.524
					c0.227-0.414,0.528-0.75,0.904-1.009c0.377-0.258,0.81-0.442,1.3-0.555c0.489-0.113,1.004-0.169,1.545-0.169
					c0.44,0,0.875,0.03,1.311,0.093c0.432,0.063,0.824,0.191,1.176,0.386c0.35,0.195,0.633,0.469,0.847,0.82
					c0.215,0.352,0.32,0.811,0.32,1.375v5.011c0,0.376,0.021,0.652,0.065,0.828c0.043,0.176,0.192,0.264,0.444,0.264
					c0.137,0,0.3-0.03,0.49-0.094v1.243C156.188,90.479,155.805,90.562,155.314,90.562z M153.073,85.654
					c-0.325,0.07-0.668,0.127-1.026,0.17c-0.357,0.045-0.719,0.095-1.083,0.152c-0.364,0.055-0.69,0.145-0.979,0.271
					c-0.289,0.125-0.525,0.306-0.707,0.536c-0.183,0.233-0.273,0.551-0.273,0.952c0,0.265,0.053,0.487,0.16,0.669
					c0.106,0.183,0.244,0.329,0.415,0.443c0.168,0.112,0.37,0.193,0.602,0.244c0.232,0.051,0.468,0.075,0.707,0.075
					c0.527,0,0.98-0.072,1.356-0.216c0.378-0.146,0.686-0.326,0.923-0.547c0.238-0.221,0.414-0.458,0.527-0.716
					c0.111-0.257,0.169-0.498,0.169-0.724v-1.641C153.664,85.477,153.4,85.587,153.073,85.654z"/>
				<path fill="#999999" d="M162.303,80.615v1.414h-1.94v6.047c0,0.188,0.016,0.338,0.048,0.451
					c0.029,0.113,0.091,0.201,0.179,0.263c0.087,0.063,0.21,0.104,0.366,0.123c0.157,0.02,0.363,0.03,0.611,0.03h0.736v1.412h-1.225
					c-0.414,0-0.768-0.028-1.063-0.086c-0.295-0.057-0.533-0.159-0.716-0.311c-0.183-0.15-0.317-0.364-0.405-0.639
					c-0.087-0.278-0.131-0.642-0.131-1.094v-6.197h-1.658v-1.414h1.658v-2.919h1.6v2.919H162.303z"/>
				<path fill="#999999" d="M164.035,83.489c0.2-0.623,0.502-1.161,0.904-1.619c0.401-0.458,0.898-0.821,1.488-1.084
					c0.589-0.263,1.268-0.395,2.033-0.395c0.78,0,1.461,0.132,2.044,0.395c0.585,0.263,1.079,0.626,1.479,1.084
					c0.402,0.458,0.706,0.996,0.906,1.619c0.198,0.621,0.3,1.292,0.3,2.005c0,0.717-0.102,1.384-0.3,1.997
					c-0.2,0.615-0.504,1.153-0.906,1.611c-0.399,0.458-0.894,0.816-1.479,1.073c-0.583,0.258-1.264,0.386-2.044,0.386
					c-0.766,0-1.444-0.128-2.033-0.386c-0.59-0.257-1.087-0.615-1.488-1.073c-0.402-0.458-0.704-0.996-0.904-1.611
					c-0.201-0.613-0.3-1.28-0.3-1.997C163.735,84.781,163.834,84.11,164.035,83.489z M165.664,87.068
					c0.158,0.458,0.375,0.842,0.65,1.148c0.276,0.309,0.6,0.543,0.971,0.706c0.371,0.164,0.762,0.245,1.176,0.245
					c0.415,0,0.808-0.081,1.177-0.245c0.371-0.163,0.696-0.397,0.971-0.706c0.277-0.307,0.492-0.69,0.65-1.148
					c0.155-0.459,0.234-0.982,0.234-1.574c0-0.589-0.079-1.113-0.234-1.572c-0.158-0.459-0.373-0.844-0.65-1.157
					c-0.274-0.314-0.6-0.553-0.971-0.716c-0.369-0.163-0.762-0.246-1.177-0.246c-0.414,0-0.805,0.083-1.176,0.246
					s-0.694,0.401-0.971,0.716c-0.275,0.313-0.492,0.698-0.65,1.157c-0.157,0.459-0.234,0.983-0.234,1.572
					C165.43,86.086,165.507,86.609,165.664,87.068z"/>
				<path fill="#999999" d="M176.713,80.615v2.055h0.038c0.387-0.791,0.865-1.376,1.431-1.751c0.563-0.378,1.279-0.553,2.146-0.527
					v1.693c-0.639,0-1.188,0.089-1.639,0.265s-0.815,0.434-1.093,0.773c-0.276,0.338-0.477,0.75-0.604,1.232
					c-0.123,0.483-0.188,1.039-0.188,1.667v4.333h-1.6v-9.74H176.713z"/>
				<path fill="#999999" d="M181.816,78.864v-1.958h1.602v1.958H181.816z M183.418,80.615v9.74h-1.602v-9.74H183.418z"/>
				<path fill="#999999" d="M185.866,83.489c0.2-0.623,0.502-1.161,0.904-1.619c0.403-0.458,0.897-0.821,1.488-1.084
					c0.59-0.263,1.268-0.395,2.032-0.395c0.779,0,1.462,0.132,2.045,0.395c0.584,0.263,1.078,0.626,1.48,1.084
					c0.398,0.458,0.7,0.996,0.902,1.619c0.201,0.621,0.302,1.292,0.302,2.005c0,0.717-0.101,1.384-0.302,1.997
					c-0.202,0.615-0.504,1.153-0.902,1.611c-0.402,0.458-0.896,0.816-1.48,1.073c-0.583,0.258-1.266,0.386-2.045,0.386
					c-0.765,0-1.442-0.128-2.032-0.386c-0.591-0.257-1.085-0.615-1.488-1.073c-0.402-0.458-0.704-0.996-0.904-1.611
					c-0.2-0.613-0.302-1.28-0.302-1.997C185.564,84.781,185.666,84.11,185.866,83.489z M187.495,87.068
					c0.156,0.458,0.375,0.842,0.648,1.148c0.278,0.309,0.6,0.543,0.971,0.706c0.371,0.164,0.764,0.245,1.177,0.245
					c0.416,0,0.808-0.081,1.178-0.245c0.371-0.163,0.695-0.397,0.971-0.706c0.275-0.307,0.492-0.69,0.65-1.148
					c0.155-0.459,0.234-0.982,0.234-1.574c0-0.589-0.079-1.113-0.234-1.572c-0.158-0.459-0.375-0.844-0.65-1.157
					c-0.275-0.314-0.6-0.553-0.971-0.716c-0.37-0.163-0.762-0.246-1.178-0.246c-0.413,0-0.806,0.083-1.177,0.246
					s-0.692,0.401-0.971,0.716c-0.273,0.313-0.492,0.698-0.648,1.157c-0.157,0.459-0.236,0.983-0.236,1.572
					C187.259,86.086,187.338,86.609,187.495,87.068z"/>
				<path fill="#999999" d="M209.618,90.355v-1.319h-0.038c-0.264,0.541-0.677,0.93-1.244,1.168
					c-0.563,0.239-1.185,0.357-1.865,0.357c-0.752,0-1.408-0.139-1.966-0.414c-0.56-0.276-1.023-0.646-1.395-1.111
					c-0.371-0.464-0.649-1.004-0.838-1.619c-0.188-0.616-0.283-1.27-0.283-1.959c0-0.69,0.091-1.345,0.273-1.959
					c0.181-0.614,0.456-1.152,0.829-1.61c0.371-0.46,0.834-0.823,1.394-1.094c0.56-0.27,1.208-0.403,1.95-0.403
					c0.252,0,0.52,0.025,0.81,0.075c0.289,0.05,0.575,0.134,0.867,0.254c0.287,0.119,0.562,0.275,0.819,0.472
					c0.256,0.194,0.472,0.436,0.648,0.724h0.038v-5.01h1.601v13.449H209.618z M203.862,86.897c0.121,0.435,0.304,0.821,0.547,1.159
					c0.244,0.339,0.558,0.609,0.94,0.81c0.386,0.201,0.834,0.302,1.348,0.302c0.54,0,1-0.105,1.375-0.319
					c0.377-0.214,0.685-0.493,0.925-0.839c0.238-0.346,0.41-0.737,0.518-1.178c0.105-0.438,0.159-0.885,0.159-1.338
					c0-0.476-0.056-0.938-0.169-1.384s-0.292-0.837-0.538-1.177c-0.244-0.338-0.562-0.611-0.95-0.82
					c-0.389-0.207-0.859-0.311-1.412-0.311c-0.54,0-0.998,0.107-1.375,0.321c-0.378,0.214-0.679,0.496-0.905,0.846
					c-0.227,0.354-0.389,0.756-0.488,1.208c-0.103,0.451-0.152,0.917-0.152,1.394C203.684,86.022,203.745,86.465,203.862,86.897z"/>
				<path fill="#999999" d="M213.969,78.864v-1.958h1.602v1.958H213.969z M215.57,80.615v9.74h-1.602v-9.74H215.57z"/>
				<path fill="#999999" d="M225.364,76.906v13.449h-1.602V76.906H225.364z"/>
				<path fill="#999999" d="M228.132,78.864v-1.958h1.601v1.958H228.132z M229.732,80.615v9.74h-1.601v-9.74H229.732z"/>
				<path fill="#999999" d="M233.915,80.615v1.546h0.036c0.667-1.18,1.722-1.77,3.167-1.77c0.641,0,1.172,0.086,1.601,0.264
					c0.427,0.175,0.772,0.42,1.036,0.734c0.262,0.313,0.45,0.687,0.556,1.12c0.104,0.434,0.16,0.913,0.16,1.441v6.404h-1.601v-6.594
					c0-0.603-0.177-1.08-0.53-1.431c-0.351-0.353-0.833-0.528-1.448-0.528c-0.49,0-0.915,0.076-1.271,0.227
					c-0.357,0.149-0.657,0.364-0.896,0.641s-0.416,0.6-0.535,0.97c-0.121,0.371-0.179,0.774-0.179,1.215v5.501h-1.604v-9.74H233.915
					z"/>
				<path fill="#999999" d="M250.378,93.104c-0.729,0.792-1.871,1.188-3.429,1.188c-0.452,0-0.913-0.05-1.383-0.149
					c-0.473-0.102-0.899-0.264-1.282-0.49c-0.385-0.227-0.7-0.521-0.952-0.886c-0.25-0.363-0.389-0.809-0.413-1.338h1.602
					c0.012,0.29,0.104,0.534,0.27,0.735c0.173,0.2,0.379,0.363,0.623,0.489c0.246,0.125,0.512,0.217,0.802,0.273
					c0.288,0.058,0.563,0.084,0.829,0.084c0.528,0,0.973-0.09,1.336-0.271c0.365-0.183,0.666-0.435,0.906-0.754
					c0.236-0.321,0.411-0.707,0.516-1.159c0.107-0.453,0.161-0.946,0.161-1.487v-0.641h-0.036c-0.277,0.603-0.696,1.045-1.254,1.328
					c-0.56,0.281-1.152,0.425-1.779,0.425c-0.729,0-1.363-0.133-1.903-0.396c-0.541-0.265-0.991-0.619-1.356-1.065
					c-0.363-0.443-0.637-0.966-0.817-1.563c-0.183-0.595-0.274-1.225-0.274-1.892c0-0.578,0.076-1.172,0.225-1.78
					c0.152-0.608,0.404-1.162,0.756-1.657c0.35-0.496,0.815-0.903,1.393-1.226c0.578-0.32,1.288-0.479,2.129-0.479
					c0.613,0,1.179,0.134,1.694,0.403c0.517,0.271,0.917,0.676,1.205,1.215h0.02v-1.395h1.506v8.911
					C251.469,91.12,251.104,92.312,250.378,93.104z M248.334,88.726c0.371-0.22,0.669-0.509,0.895-0.868
					c0.227-0.355,0.394-0.761,0.5-1.214c0.105-0.451,0.159-0.903,0.159-1.355c0-0.427-0.05-0.849-0.151-1.263
					c-0.101-0.414-0.26-0.788-0.479-1.12c-0.221-0.332-0.506-0.6-0.857-0.801s-0.777-0.302-1.281-0.302
					c-0.515,0-0.953,0.099-1.318,0.293c-0.364,0.194-0.66,0.455-0.895,0.782c-0.232,0.326-0.402,0.702-0.508,1.13
					c-0.107,0.426-0.161,0.873-0.161,1.337c0,0.438,0.044,0.88,0.132,1.318c0.089,0.439,0.237,0.839,0.452,1.194
					c0.214,0.359,0.496,0.648,0.849,0.868c0.352,0.22,0.792,0.329,1.317,0.329C247.515,89.055,247.963,88.945,248.334,88.726z"/>
				<path fill="#999999" d="M260.624,90.355v-1.547h-0.036c-0.342,0.604-0.771,1.047-1.302,1.329
					c-0.527,0.282-1.146,0.424-1.863,0.424c-0.641,0-1.174-0.085-1.603-0.255c-0.427-0.169-0.772-0.411-1.036-0.725
					c-0.264-0.314-0.448-0.688-0.556-1.12c-0.104-0.434-0.16-0.913-0.16-1.44v-6.406h1.603v6.595c0,0.604,0.175,1.08,0.528,1.431
					c0.349,0.352,0.835,0.527,1.448,0.527c0.492,0,0.915-0.075,1.271-0.225c0.357-0.153,0.657-0.364,0.897-0.643
					c0.235-0.275,0.414-0.599,0.533-0.969c0.121-0.37,0.179-0.776,0.179-1.216v-5.501h1.604v9.74H260.624z"/>
				<path fill="#999999" d="M272.207,90.562c-0.415,0-0.744-0.115-0.988-0.349c-0.244-0.231-0.367-0.611-0.367-1.139
					c-0.44,0.527-0.952,0.907-1.535,1.139c-0.584,0.233-1.215,0.349-1.894,0.349c-0.438,0-0.853-0.046-1.244-0.142
					c-0.387-0.093-0.729-0.25-1.025-0.47c-0.294-0.22-0.527-0.502-0.696-0.848c-0.171-0.346-0.254-0.763-0.254-1.253
					c0-0.553,0.093-1.005,0.281-1.356c0.188-0.351,0.437-0.637,0.744-0.856s0.659-0.387,1.054-0.499
					c0.396-0.113,0.802-0.208,1.216-0.283c0.441-0.087,0.855-0.152,1.253-0.198c0.396-0.044,0.743-0.106,1.045-0.188
					s0.54-0.2,0.717-0.358c0.175-0.156,0.264-0.385,0.264-0.688c0-0.35-0.067-0.634-0.198-0.848
					c-0.131-0.213-0.302-0.376-0.508-0.49c-0.209-0.113-0.438-0.188-0.697-0.226c-0.258-0.036-0.512-0.057-0.764-0.057
					c-0.679,0-1.242,0.13-1.694,0.387c-0.452,0.258-0.698,0.744-0.736,1.459h-1.599c0.023-0.602,0.15-1.11,0.375-1.524
					c0.226-0.414,0.527-0.75,0.904-1.009c0.377-0.258,0.812-0.442,1.3-0.555c0.49-0.113,1.004-0.169,1.546-0.169
					c0.438,0,0.875,0.03,1.31,0.093c0.433,0.063,0.823,0.191,1.177,0.386c0.351,0.195,0.633,0.469,0.847,0.82
					c0.212,0.352,0.319,0.811,0.319,1.375v5.011c0,0.376,0.022,0.652,0.067,0.828c0.042,0.176,0.19,0.264,0.44,0.264
					c0.14,0,0.304-0.03,0.49-0.094v1.243C273.08,90.479,272.697,90.562,272.207,90.562z M269.967,85.654
					c-0.327,0.07-0.669,0.127-1.027,0.17c-0.357,0.045-0.719,0.095-1.082,0.152c-0.365,0.055-0.692,0.145-0.979,0.271
					c-0.29,0.125-0.526,0.306-0.707,0.536c-0.183,0.233-0.273,0.551-0.273,0.952c0,0.265,0.054,0.487,0.16,0.669
					c0.105,0.183,0.244,0.329,0.415,0.443c0.169,0.112,0.371,0.193,0.602,0.244c0.233,0.051,0.468,0.075,0.706,0.075
					c0.527,0,0.98-0.072,1.357-0.216c0.377-0.146,0.685-0.326,0.922-0.547c0.238-0.221,0.415-0.458,0.528-0.716
					c0.113-0.257,0.171-0.498,0.171-0.724v-1.641C270.554,85.477,270.292,85.587,269.967,85.654z"/>
				<path fill="#999999" d="M282.342,93.104c-0.729,0.792-1.871,1.188-3.429,1.188c-0.452,0-0.913-0.05-1.383-0.149
					c-0.473-0.102-0.898-0.264-1.282-0.49c-0.383-0.227-0.7-0.521-0.95-0.886c-0.25-0.363-0.391-0.809-0.414-1.338h1.601
					c0.012,0.29,0.104,0.534,0.271,0.735c0.172,0.2,0.379,0.363,0.622,0.489c0.246,0.125,0.513,0.217,0.802,0.273
					c0.288,0.058,0.563,0.084,0.828,0.084c0.529,0,0.974-0.09,1.339-0.271c0.363-0.183,0.665-0.435,0.904-0.754
					c0.238-0.321,0.411-0.707,0.517-1.159c0.106-0.453,0.16-0.946,0.16-1.487v-0.641h-0.035c-0.278,0.603-0.696,1.045-1.254,1.328
					c-0.56,0.281-1.153,0.425-1.782,0.425c-0.726,0-1.361-0.133-1.9-0.396c-0.54-0.265-0.992-0.619-1.357-1.065
					c-0.363-0.443-0.637-0.966-0.819-1.563c-0.181-0.595-0.271-1.225-0.271-1.892c0-0.578,0.075-1.172,0.226-1.78
					c0.151-0.608,0.401-1.162,0.752-1.657c0.354-0.496,0.815-0.903,1.396-1.226c0.577-0.32,1.287-0.479,2.127-0.479
					c0.614,0,1.18,0.134,1.696,0.403c0.514,0.271,0.916,0.676,1.204,1.215h0.02v-1.395h1.508v8.911
					C283.435,91.12,283.07,92.312,282.342,93.104z M280.298,88.726c0.369-0.22,0.669-0.509,0.896-0.868
					c0.226-0.355,0.393-0.761,0.498-1.214c0.106-0.451,0.16-0.903,0.16-1.355c0-0.427-0.05-0.849-0.15-1.263
					c-0.102-0.414-0.26-0.788-0.48-1.12s-0.506-0.6-0.857-0.801c-0.351-0.201-0.777-0.302-1.281-0.302
					c-0.514,0-0.952,0.099-1.317,0.293c-0.363,0.194-0.663,0.455-0.896,0.782c-0.231,0.326-0.4,0.702-0.508,1.13
					c-0.108,0.426-0.16,0.873-0.16,1.337c0,0.438,0.043,0.88,0.131,1.318c0.089,0.439,0.24,0.839,0.452,1.194
					c0.212,0.359,0.498,0.648,0.848,0.868c0.353,0.22,0.793,0.329,1.319,0.329C279.479,89.055,279.927,88.945,280.298,88.726z"/>
				<path fill="#999999" d="M293.342,93.104c-0.729,0.792-1.871,1.188-3.429,1.188c-0.452,0-0.913-0.05-1.385-0.149
					c-0.471-0.102-0.896-0.264-1.28-0.49c-0.385-0.227-0.7-0.521-0.95-0.886c-0.254-0.363-0.391-0.809-0.416-1.338h1.603
					c0.012,0.29,0.102,0.534,0.272,0.735c0.17,0.2,0.377,0.363,0.62,0.489c0.246,0.125,0.513,0.217,0.802,0.273
					c0.288,0.058,0.563,0.084,0.827,0.084c0.53,0,0.975-0.09,1.34-0.271c0.363-0.183,0.665-0.435,0.904-0.754
					c0.236-0.321,0.409-0.707,0.517-1.159c0.106-0.453,0.16-0.946,0.16-1.487v-0.641h-0.037c-0.276,0.603-0.694,1.045-1.252,1.328
					c-0.562,0.281-1.153,0.425-1.782,0.425c-0.727,0-1.361-0.133-1.9-0.396c-0.54-0.265-0.992-0.619-1.357-1.065
					c-0.363-0.443-0.637-0.966-0.817-1.563c-0.183-0.595-0.273-1.225-0.273-1.892c0-0.578,0.073-1.172,0.224-1.78
					c0.151-0.608,0.403-1.162,0.754-1.657c0.352-0.496,0.815-0.903,1.395-1.226c0.576-0.32,1.288-0.479,2.127-0.479
					c0.617,0,1.181,0.134,1.697,0.403c0.514,0.271,0.916,0.676,1.206,1.215h0.018v-1.395h1.508v8.911
					C294.435,91.12,294.067,92.312,293.342,93.104z M291.298,88.726c0.371-0.22,0.669-0.509,0.895-0.868
					c0.227-0.355,0.394-0.761,0.498-1.214c0.107-0.451,0.161-0.903,0.161-1.355c0-0.427-0.05-0.849-0.148-1.263
					c-0.104-0.414-0.263-0.788-0.482-1.12c-0.221-0.332-0.506-0.6-0.857-0.801c-0.353-0.201-0.777-0.302-1.281-0.302
					c-0.514,0-0.953,0.099-1.317,0.293c-0.365,0.194-0.663,0.455-0.896,0.782c-0.231,0.326-0.402,0.702-0.508,1.13
					c-0.107,0.426-0.16,0.873-0.16,1.337c0,0.438,0.043,0.88,0.131,1.318c0.089,0.439,0.238,0.839,0.454,1.194
					c0.21,0.359,0.496,0.648,0.848,0.868c0.351,0.22,0.791,0.329,1.317,0.329C290.479,89.055,290.927,88.945,291.298,88.726z"/>
				<path fill="#999999" d="M297.127,78.864v-1.958h1.602v1.958H297.127z M298.729,80.615v9.74h-1.602v-9.74H298.729z"/>
			</g>
		</g>
	</g>
	<g>
		<path fill-rule="evenodd" clip-rule="evenodd" fill="#FFFFFF" d="M70.101,57.466c0.485,0.098,0.968,0.098,1.453,0.098
			c6.201,0,11.236-5.038,11.236-11.239c0-6.198-5.036-11.237-11.236-11.237c-2.713,0-5.425,1.066-7.458,2.809
			c-0.292,0.291-0.387,0.483-0.678,0.483c-0.292-0.095-0.581-0.192-0.775-0.483c-3.971-3.875-9.494-6.295-15.402-6.295
			c-12.109,0-21.989,9.88-21.989,21.989c0,9.008,5.424,17.048,13.755,20.439c-0.968,1.161-1.55,2.615-1.55,4.166
			c0,3.486,2.809,6.295,6.297,6.295c3.391,0,6.2-2.809,6.2-6.295c0-0.97-0.194-1.841-0.582-2.714
			c9.492-0.969,17.339-7.943,19.373-17.24c0-0.194,0.194-0.486,0.389-0.679C69.423,57.368,69.811,57.466,70.101,57.466z"/>
		<path fill-rule="evenodd" clip-rule="evenodd" fill="#FFFFFF" d="M19.534,30.341c6.104,0,11.141-5.038,11.141-11.237
			c0-6.2-5.037-11.237-11.141-11.237c-6.199,0-11.238,5.038-11.238,11.237C8.296,25.304,13.335,30.341,19.534,30.341z"/>
	</g>
	<g>
		<g>
			<path fill-rule="evenodd" clip-rule="evenodd" fill="#FFFFFF" d="M70.143,57.466c0.485,0.098,0.968,0.098,1.453,0.098
				c6.201,0,11.237-5.038,11.237-11.239c0-6.198-5.036-11.236-11.237-11.236c-2.713,0-5.425,1.066-7.459,2.809
				c-0.292,0.291-0.388,0.484-0.678,0.484c-0.292-0.096-0.582-0.194-0.775-0.484c-3.972-3.875-9.495-6.296-15.403-6.296
				c-12.108,0-21.989,9.881-21.989,21.989c0,9.008,5.425,17.05,13.755,20.439c-0.968,1.163-1.55,2.615-1.55,4.166
				c0,3.486,2.809,6.297,6.297,6.297c3.391,0,6.201-2.811,6.201-6.297c0-0.969-0.195-1.841-0.582-2.714
				c9.492-0.968,17.339-7.942,19.372-17.24c0-0.194,0.195-0.486,0.389-0.679C69.464,57.368,69.853,57.466,70.143,57.466z"/>
			<path fill-rule="evenodd" clip-rule="evenodd" fill="#FFFFFF" d="M19.577,30.342c6.103,0,11.141-5.039,11.141-11.237
				c0-6.2-5.038-11.237-11.141-11.237c-6.2,0-11.237,5.037-11.237,11.237C8.339,25.304,13.376,30.342,19.577,30.342z"/>
		</g>
		<path fill-rule="evenodd" clip-rule="evenodd" fill="#00AFF3" d="M53.568,0h28.964c4.165,0,7.652,3.391,7.652,7.653v74.881
			c0,4.166-3.487,7.652-7.652,7.652H53.568V74.493c7.168-2.422,12.787-8.428,14.627-15.886c0.098-0.388,0.195-0.678,0.485-0.873
			c0.193-0.193,0.581-0.388,0.968-0.289c0.485,0,0.969,0.096,1.453,0.096c6.2,0,11.236-5.037,11.236-11.237
			s-5.036-11.237-11.236-11.237c-2.712,0-5.23,0.872-7.266,2.616c-0.29,0.194-0.581,0.387-0.968,0.387
			c-0.291,0-0.581-0.193-0.872-0.387c-2.422-2.325-5.232-4.069-8.428-5.038V0z M18.986,0h34.583v32.645
			c-2.132-0.677-4.456-1.065-6.781-1.065c-12.109,0-21.99,9.88-21.99,21.988c0,9.01,5.425,17.052,13.755,20.441
			c-0.968,1.161-1.548,2.615-1.548,4.163c0,3.489,2.809,6.298,6.296,6.298c3.391,0,6.2-2.809,6.2-6.298
			c0-0.967-0.194-1.838-0.582-2.71c1.55-0.194,3.101-0.485,4.65-0.97v15.693H18.986V30.321h0.097
			c6.104,0,11.141-5.037,11.141-11.237c0-6.2-5.037-11.236-11.141-11.236h-0.097V0z M7.652,0h11.334v7.847
			c-6.199,0-11.139,5.037-11.139,11.236c0,6.2,4.94,11.141,11.139,11.237v59.866H7.652C3.389,90.187,0,86.7,0,82.534V7.653
			C0,3.391,3.389,0,7.652,0z"/>
	</g>
</g>
</svg>
